<svg width="46" height="46" viewBox="0 0 46 46" fill="none" xmlns="http://www.w3.org/2000/svg">
<path fill-rule="evenodd" clip-rule="evenodd" d="M23 40.25C32.5269 40.25 40.25 32.5269 40.25 23C40.25 13.4731 32.5269 5.75 23 5.75C13.4731 5.75 5.75 13.4731 5.75 23C5.75 32.5269 13.4731 40.25 23 40.25ZM31.4349 17.8902C31.7885 17.4659 31.7311 16.8353 31.3069 16.4818C30.8826 16.1282 30.252 16.1855 29.8984 16.6098L21.7172 26.4274C21.3704 26.8434 21.1755 27.0738 21.0199 27.2153L21.014 27.2207L21.0076 27.2159C20.8398 27.089 20.6248 26.8772 20.2418 26.4943L16.0404 22.2929C15.6499 21.9024 15.0168 21.9024 14.6262 22.2929C14.2357 22.6834 14.2357 23.3166 14.6262 23.7071L18.8276 27.9085L18.8684 27.9493L18.8684 27.9493C19.1949 28.276 19.509 28.5902 19.8013 28.8111C20.1286 29.0587 20.5574 29.2915 21.1068 29.2665C21.6562 29.2416 22.0621 28.971 22.3657 28.6948C22.6367 28.4483 22.921 28.107 23.2166 27.7521L23.2166 27.7521L23.2536 27.7077L31.4349 17.8902Z" fill="#00DA23"/>
</svg>
