<svg width="21" height="21" viewBox="0 0 21 21" fill="none" xmlns="http://www.w3.org/2000/svg">
<path d="M18.6185 12.5974C18.794 12.5807 18.9425 12.539 19.07 12.4085L19.0723 12.4054C19.2785 12.3432 19.4601 12.1952 19.5058 11.9744C19.6341 11.3506 19.7646 10.726 19.8943 10.1022C20.0271 9.45869 20.1253 8.80985 20.2386 8.16328C20.4726 6.82614 20.7021 5.48747 20.8903 4.14121C20.9316 3.84829 20.9653 3.55156 20.9976 3.25636C21.0171 3.08637 20.9151 2.88982 20.8003 2.77523C20.6848 2.6576 20.5288 2.59461 20.3661 2.58399C20.2678 2.52859 20.1636 2.49292 20.0406 2.48078C19.9011 2.46712 19.7563 2.47168 19.6153 2.47471C19.4638 2.47775 19.3138 2.47168 19.1623 2.46712C18.8705 2.45802 18.5795 2.4436 18.2878 2.43145C17.702 2.40489 17.1147 2.43753 16.529 2.43753C15.2292 2.43904 13.9309 2.45422 12.6334 2.44815C11.4588 2.44208 10.2843 2.43601 9.10976 2.4269C8.86075 2.42538 8.61249 2.4269 8.36349 2.42842C8.04698 2.42994 7.73197 2.43146 7.41546 2.42538C6.80869 2.41704 6.20418 2.40034 5.59891 2.40034H5.59666C5.52166 1.98523 5.44515 1.57013 5.3754 1.15426C5.34165 0.950119 5.3034 0.74598 5.26515 0.541841C5.2329 0.368057 5.11364 0.238289 4.96514 0.153294C4.85489 0.0667816 4.72213 0.00607101 4.57288 0.00303549C4.50388 0.000758842 4.43488 0 4.36662 0C3.82136 0 3.27534 0.0470507 2.72933 0.0591928C2.03931 0.0758882 1.34854 0.057675 0.658519 0.0546395C0.298508 0.0531217 0 0.358951 0 0.720178C0 1.08141 0.298509 1.38723 0.657769 1.38572C1.34254 1.38496 2.02806 1.3804 2.71283 1.35005C2.92733 1.34094 3.14259 1.34246 3.35935 1.34398C3.4591 1.34398 3.5596 1.3455 3.66085 1.34398C3.79661 1.34398 3.93311 1.33639 4.06962 1.33184C4.30587 2.52252 4.53763 3.71321 4.72363 4.91451C4.82639 5.57778 4.96214 6.22814 5.12264 6.88002C5.28915 7.55921 5.4159 8.24752 5.55841 8.93051C5.69566 9.58087 5.83966 10.2305 5.96792 10.8831C6.09917 11.5487 6.23568 12.2112 6.38418 12.8729C6.52368 13.4997 6.68419 14.122 6.80944 14.7511C6.9377 15.3916 7.0892 16.0261 7.2302 16.6635C7.26696 16.835 7.30521 17.0058 7.33296 17.1788C7.34946 17.2737 7.40796 17.3602 7.47771 17.4368C7.50171 17.4732 7.51896 17.515 7.55046 17.5461C7.68472 17.6819 7.83922 17.7267 8.02148 17.7442C8.07998 17.7502 8.13848 17.7464 8.19623 17.751C8.13473 17.8534 8.09648 17.9695 8.05148 18.0796C8.02973 18.1335 8.01023 18.1896 7.99523 18.245C7.94947 18.4256 7.91572 18.6025 7.89247 18.7853C7.85272 19.101 7.89547 19.4107 8.02223 19.7028C8.18123 20.0739 8.46549 20.3964 8.833 20.5649C9.04376 20.6628 9.23951 20.7387 9.46902 20.7766C9.76378 20.8229 10.0315 20.8017 10.321 20.7501C10.8438 20.6575 11.2983 20.3061 11.5661 19.8523C11.7528 19.5351 11.8046 19.1139 11.8263 18.7535C11.8413 18.5304 11.8188 18.2997 11.7333 18.0925C11.7011 17.9984 11.6598 17.9096 11.6066 17.8261C11.5938 17.8041 11.5736 17.7867 11.5586 17.7654C11.7603 17.7669 11.9613 17.7646 12.1631 17.7662C12.6911 17.7707 13.2214 17.7692 13.7509 17.7662C14.3442 17.7639 14.9389 17.7692 15.5329 17.776C15.4737 17.8694 15.4212 17.968 15.3739 18.0652C15.2839 18.2435 15.2149 18.4385 15.1767 18.6351C15.1384 18.8316 15.1077 19.0312 15.0882 19.2308C15.0559 19.5867 15.1587 19.9502 15.3424 20.2507C15.5547 20.5945 15.9357 20.8123 16.3092 20.933C16.4517 20.9793 16.6152 20.9899 16.7652 20.9944C16.8507 20.9975 16.9362 21.002 17.0195 20.999C17.4275 20.9884 17.8228 20.9049 18.1835 20.7099C18.413 20.5847 18.6253 20.3244 18.7573 20.0974C18.86 19.9199 18.941 19.7279 19.0018 19.5328C19.1165 19.1633 19.1195 18.7595 19.0018 18.3922C18.9395 18.1972 18.8293 18.0219 18.707 17.8572C18.7753 17.8542 18.8435 17.8587 18.911 17.8542C19.0505 17.8436 19.1908 17.8276 19.3303 17.82C19.4405 17.814 19.5508 17.8246 19.6603 17.8276C19.9386 17.8367 20.1943 17.628 20.2678 17.3602C20.3121 17.1962 20.2881 17.0179 20.2033 16.8699C20.1133 16.7136 19.9873 16.6423 19.8283 16.577C19.6828 16.5186 19.5441 16.4799 19.385 16.4715C19.241 16.4624 19.0963 16.4791 18.9523 16.489C18.6388 16.5117 18.3253 16.5102 18.0118 16.4966C17.6968 16.4844 17.3832 16.4518 17.0682 16.4343C16.7502 16.4161 16.4307 16.4192 16.1127 16.4146C14.7604 16.3971 13.4089 16.4427 12.0566 16.4563C11.4048 16.4624 10.7508 16.473 10.0975 16.4715C9.56802 16.4708 9.03701 16.4601 8.50749 16.4267C8.39349 15.9244 8.27948 15.422 8.17598 14.9158C8.13098 14.6972 8.07623 14.481 8.02823 14.2632C8.19173 14.2541 8.35599 14.248 8.51949 14.2366C8.845 14.2131 9.16376 14.1326 9.48327 14.0712C10.1193 13.9505 10.7546 13.8329 11.3906 13.7183C12.0161 13.6067 12.6386 13.4861 13.2671 13.3859C13.8836 13.2872 14.5002 13.1894 15.1174 13.0983C15.1302 13.096 15.1444 13.0945 15.1579 13.0922C15.4279 13.0573 15.6987 13.0239 15.9687 12.9852C16.235 12.948 16.4982 12.9002 16.7652 12.863C16.7517 12.8646 16.7382 12.8668 16.7247 12.8691C17.1635 12.8069 17.5985 12.7287 18.0373 12.6634C18.233 12.6369 18.4258 12.6164 18.6185 12.5974ZM17.66 19.3257C17.6232 19.4 17.5835 19.4706 17.5385 19.5397C17.5167 19.564 17.4942 19.5875 17.4702 19.6102C17.4665 19.6125 17.4627 19.6148 17.459 19.6171C17.3727 19.6467 17.285 19.6679 17.195 19.6861C17.0382 19.699 16.8807 19.6975 16.7232 19.6846C16.6865 19.6763 16.652 19.6672 16.616 19.6565C16.5642 19.6285 16.514 19.5989 16.4637 19.5677L16.463 19.567C16.4495 19.545 16.436 19.523 16.424 19.4994C16.4142 19.4699 16.4052 19.4403 16.3977 19.4099C16.3932 19.3241 16.3955 19.2392 16.403 19.1526C16.4262 19.0054 16.457 18.8605 16.505 18.7186C16.5485 18.6267 16.5972 18.5379 16.6527 18.453C16.676 18.4287 16.6992 18.4059 16.724 18.3839C16.8057 18.327 16.8882 18.2716 16.9722 18.2177C17.0547 18.3179 17.1665 18.3945 17.2977 18.4325C17.3532 18.4492 17.4065 18.4674 17.4597 18.4871C17.4867 18.5 17.5122 18.5144 17.5377 18.5296C17.5647 18.5546 17.591 18.5804 17.6165 18.6078C17.6518 18.6624 17.684 18.7186 17.7148 18.7762C17.7245 18.8089 17.7335 18.8423 17.741 18.8764C17.744 18.931 17.744 18.9857 17.7418 19.0403C17.7215 19.1367 17.6938 19.2316 17.66 19.3257ZM10.471 18.9144C10.4538 19.0092 10.4313 19.101 10.4028 19.1929C10.387 19.2217 10.3713 19.249 10.3533 19.2763C10.33 19.3006 10.3068 19.3241 10.2828 19.3462C10.2445 19.3697 10.2063 19.3909 10.1665 19.4114C10.1073 19.4289 10.048 19.4433 9.98803 19.4554C9.90028 19.4607 9.81553 19.4615 9.72853 19.4577C9.65952 19.4425 9.59202 19.4243 9.52527 19.4016C9.46227 19.3697 9.40152 19.3355 9.34151 19.2976C9.33476 19.2908 9.32801 19.2832 9.32051 19.2756C9.28901 19.2255 9.25976 19.1762 9.23276 19.1246C9.22676 19.1041 9.22151 19.0836 9.21701 19.0631C9.21476 18.9986 9.21551 18.9364 9.21926 18.8726C9.24176 18.7557 9.26951 18.6412 9.30551 18.5281C9.33701 18.4651 9.37226 18.4051 9.41052 18.3459C9.44952 18.3065 9.48927 18.2685 9.53127 18.2321C9.61227 18.1775 9.69627 18.1312 9.78178 18.0872C9.83803 18.1244 9.89953 18.1532 9.96628 18.1729C9.98578 18.179 10.0045 18.1851 10.024 18.1919C10.084 18.2245 10.141 18.2602 10.1973 18.2981C10.2843 18.3725 10.3683 18.4499 10.4463 18.5342C10.4575 18.5524 10.468 18.5713 10.4778 18.5896C10.4853 18.6981 10.4808 18.8058 10.471 18.9144ZM16.817 11.6185C16.2462 11.724 15.6747 11.8302 15.1009 11.9175C14.5017 12.0085 13.9046 12.114 13.3069 12.2096C12.6859 12.3075 12.0663 12.4032 11.4483 12.5177C10.5063 12.6915 9.56052 12.8517 8.61474 12.9913C8.32674 13.011 8.03948 13.0125 7.75147 13.0171C7.59771 12.3789 7.45371 11.7376 7.32396 11.0941C7.1912 10.4301 7.0487 9.76832 6.9107 9.10581C6.77494 8.45393 6.64294 7.8013 6.50868 7.14942C6.43818 6.80868 6.34518 6.47326 6.27018 6.13555C6.19217 5.79178 6.12317 5.44573 6.05792 5.09892C5.97317 4.64739 5.90267 4.19358 5.82916 3.74052C6.40818 3.72762 6.98795 3.70562 7.56696 3.70486C8.17448 3.70334 8.78425 3.7003 9.39177 3.69879C10.6886 3.69423 11.9853 3.68513 13.2821 3.68513C14.4567 3.68513 15.6327 3.68361 16.8072 3.69727C17.3382 3.70334 17.8715 3.69879 18.4025 3.72687C18.6718 3.74204 18.9425 3.7595 19.2133 3.77164C19.3393 3.77695 19.466 3.78378 19.5928 3.78758C19.5493 4.18675 19.5066 4.58592 19.4556 4.98433C19.3753 5.54135 19.2875 6.09837 19.1885 6.65235C19.0888 7.20633 19.0093 7.76487 18.9283 8.32341C18.782 9.33955 18.593 10.3496 18.3448 11.3468C18.1033 11.3954 17.8633 11.447 17.6187 11.4864C17.3502 11.5282 17.0825 11.5699 16.817 11.6185ZM18.1993 7.76184C18.0958 8.35149 17.9938 8.93962 17.9113 9.53306C17.8813 9.77439 17.8558 10.0165 17.8198 10.2563C17.798 10.4096 17.6577 10.5613 17.531 10.6357C17.387 10.7222 17.21 10.7458 17.048 10.6995C16.8905 10.6562 16.754 10.5507 16.673 10.4073C16.5815 10.2494 16.5785 10.0931 16.6085 9.91706C16.688 9.47463 16.7412 9.02765 16.8072 8.58295C16.8717 8.14128 16.9505 7.7034 17.015 7.26325C17.0855 6.65235 17.1417 6.03918 17.1912 5.426C17.2062 5.24614 17.2527 5.09133 17.3825 4.95853C17.5047 4.83483 17.6728 4.76501 17.8445 4.76501C18.017 4.76501 18.1843 4.83483 18.3065 4.95853C18.4198 5.07312 18.5128 5.25905 18.4978 5.426C18.428 6.20689 18.335 6.99005 18.1993 7.76184Z" fill="#007AFF"/>
</svg>
