<svg width="21" height="21" viewBox="0 0 21 21" fill="none" xmlns="http://www.w3.org/2000/svg">
<path fill-rule="evenodd" clip-rule="evenodd" d="M10.5 21C16.299 21 21 16.299 21 10.5C21 4.70101 16.299 0 10.5 0C4.70101 0 0 4.70101 0 10.5C0 16.299 4.70101 21 10.5 21ZM15.9349 7.64018C16.2885 7.21591 16.2311 6.58534 15.8069 6.23178C15.3826 5.87821 14.752 5.93554 14.3984 6.35982L9.96716 11.6774C9.62044 12.0934 9.42553 12.3238 9.26991 12.4653L9.26396 12.4707L9.25755 12.4659C9.08976 12.339 8.87479 12.1272 8.49183 11.7443L6.54044 9.79289C6.14992 9.40237 5.51675 9.40237 5.12623 9.79289C4.7357 10.1834 4.7357 10.8166 5.12623 11.2071L7.07762 13.1585L7.11845 13.1993L7.11845 13.1993C7.44494 13.526 7.75903 13.8402 8.05127 14.0611C8.37864 14.3087 8.80735 14.5415 9.35677 14.5165C9.90618 14.4916 10.3121 14.221 10.6157 13.9448C10.8867 13.6983 11.1711 13.3569 11.4666 13.0021L11.5036 12.9577L15.9349 7.64018Z" fill="#007AFF"/>
</svg>
