<svg width="20" height="20" viewBox="0 0 20 20" fill="none" xmlns="http://www.w3.org/2000/svg">
<path d="M16.4833 16.6752H3.51682C3.01877 16.6664 2.54436 16.4607 2.19764 16.103C1.85092 15.7454 1.66015 15.2649 1.66684 14.7669V5.24181C1.66015 4.74373 1.85092 4.2633 2.19764 3.90565C2.54436 3.548 3.01877 3.34227 3.51682 3.3335H16.4833C16.9814 3.34227 17.4558 3.548 17.8025 3.90565C18.1492 4.2633 18.3402 4.74373 18.3335 5.24181V14.7669C18.3402 15.2649 18.1492 15.7454 17.8025 16.103C17.4558 16.4607 16.9814 16.6664 16.4833 16.6752V16.6752Z" stroke="#007AFF" stroke-width="2" stroke-miterlimit="10"/>
<path d="M1.66676 6.6665L10.0001 9.99984L18.3334 6.6665" stroke="#007AFF" stroke-width="2" stroke-linejoin="round"/>
</svg>
