<svg width="20" height="20" viewBox="0 0 20 20" fill="none" xmlns="http://www.w3.org/2000/svg">
<path d="M16.2834 11.4248C17.5584 12.1581 18.3333 13.0915 18.3333 14.1665C18.3333 16.4665 14.6 18.3331 10 18.3331C5.40001 18.3331 1.66667 16.4665 1.66667 14.1665C1.66667 13.1165 2.44165 12.1581 3.72498 11.4248" stroke="#007AFF" stroke-width="2" stroke-linejoin="round"/>
<path d="M5 6.6665C5 5.34042 5.52675 4.06866 6.46444 3.13098C7.40212 2.1933 8.67392 1.6665 10 1.6665C11.3261 1.6665 12.5979 2.1933 13.5356 3.13098C14.4732 4.06866 15 5.34042 15 6.6665C15 11.7082 10 14.1665 10 14.1665C10 14.1665 5 11.7082 5 6.6665Z" stroke="#007AFF" stroke-width="2" stroke-linejoin="round"/>
<path d="M9.99998 7.91683C10.9205 7.91683 11.6666 7.17064 11.6666 6.25016C11.6666 5.32969 10.9205 4.5835 9.99998 4.5835C9.07951 4.5835 8.33331 5.32969 8.33331 6.25016C8.33331 7.17064 9.07951 7.91683 9.99998 7.91683Z" fill="#007AFF"/>
</svg>
