<svg width="39" height="100" viewBox="0 0 39 100" fill="none" xmlns="http://www.w3.org/2000/svg">
<path d="M14.77 30.4H1.12V18.18C1.12 13.5 2.29 9.38333 4.63 5.82999C7.05667 2.18999 10.9567 0.369994 16.33 0.369994H19.97C25.7767 0.369994 30.11 1.97333 32.97 5.17999C35.83 8.38666 37.26 12.8067 37.26 18.44V29.49C37.26 37.6367 35.2233 42.7067 31.15 44.7C33.5767 45.5667 35.3533 46.8667 36.48 48.6C37.6067 50.3333 38.17 52.89 38.17 56.27V80.06C38.17 85.9533 36.61 90.6333 33.49 94.1C30.4567 97.48 26.34 99.17 21.14 99.17H17.11C11.2167 99.17 6.88333 97.6533 4.11 94.62C1.42333 91.5867 0.0800001 87.5567 0.0800001 82.53V62.9H14.64V78.76C14.64 82.5733 16.07 84.48 18.93 84.48C21.6167 84.48 22.96 82.5733 22.96 78.76V58.61C22.96 56.7033 22.7 55.4033 22.18 54.71C21.7467 54.0167 20.7067 53.67 19.06 53.67H11.13V38.59H18.02C19.7533 38.59 20.88 38.2433 21.4 37.55C21.92 36.8567 22.18 35.3833 22.18 33.13V19.61C22.18 17.6167 21.8767 16.23 21.27 15.45C20.75 14.67 19.7967 14.28 18.41 14.28C17.11 14.28 16.1567 14.67 15.55 15.45C15.03 16.1433 14.77 17.4867 14.77 19.48V30.4Z" fill="#007AFF" fill-opacity="0.14"/>
</svg>
