<svg width="41" height="98" viewBox="0 0 41 98" fill="none" xmlns="http://www.w3.org/2000/svg">
<path d="M20.19 14.41C18.8033 14.41 17.85 14.8 17.33 15.58C16.81 16.36 16.55 17.66 16.55 19.48V35.99H2.51V18.31C2.51 13.11 3.76667 8.82 6.28 5.44C8.79333 2.06 12.8667 0.369994 18.5 0.369994H21.49C33.45 0.369994 39.43 6.34999 39.43 18.31V23.12C39.43 29.2733 38.9533 34.04 38 37.42C37.0467 40.7133 34.6633 45.2633 30.85 51.07C29.81 52.63 26.69 57.05 21.49 64.33C17.5033 70.05 14.9467 74.21 13.82 76.81C12.78 79.41 12.26 81.88 12.26 84.22H25.26V65.63H40.08V98H0.04V90.72C0.04 84.3933 0.733333 78.9767 2.12 74.47C3.59333 69.8767 6.67 63.55 11.35 55.49L19.8 40.54C21.1 38.2 22.0533 36.1633 22.66 34.43C23.3533 32.61 23.7433 31.2233 23.83 30.27C23.9167 29.23 23.96 27.7133 23.96 25.72V19.48C23.96 16.1 22.7033 14.41 20.19 14.41Z" fill="#007AFF" fill-opacity="0.14"/>
</svg>
