<svg width="39" height="99" viewBox="0 0 39 99" fill="none" xmlns="http://www.w3.org/2000/svg">
<path d="M15.81 53.71H1.38V0.279998H37.52V14.84H15.81V36.55C18.93 30.2233 22.8733 27.06 27.64 27.06H28.16C31.7133 27.06 34.3133 28.1867 35.96 30.44C37.6067 32.6067 38.43 35.2933 38.43 38.5V79.97C38.43 85.0833 36.9567 89.4167 34.01 92.97C31.0633 96.4367 26.6433 98.17 20.75 98.17H18.02C11.3467 98.17 6.66667 96.5233 3.98 93.23C1.38 89.85 0.0800001 85.95 0.0800001 81.53V61.64H15.16V78.67C15.16 82.3967 16.46 84.26 19.06 84.26C21.4867 84.26 22.7 82.3967 22.7 78.67V47.86C22.7 44.0467 21.5733 42.14 19.32 42.14C16.98 42.14 15.81 44.0467 15.81 47.86V53.71Z" fill="#007AFF" fill-opacity="0.14"/>
</svg>
