<svg width="18" height="19" viewBox="0 0 18 19" fill="none" xmlns="http://www.w3.org/2000/svg">
<path d="M13.4571 10.9571L15.2664 12.7664C15.5335 13.0335 15.5335 13.4665 15.2664 13.7336C13.8225 15.1775 11.5366 15.3399 9.90299 14.1147L9.0722 13.4917C7.53189 12.3364 6.16359 10.9681 5.00835 9.4278L4.38526 8.59701C3.16005 6.96341 3.32251 4.67749 4.76642 3.23358C5.0335 2.9665 5.4665 2.9665 5.73358 3.23358L7.54289 5.04289C7.93342 5.43342 7.93342 6.06658 7.54289 6.45711L6.95381 7.04619C6.8321 7.1679 6.80192 7.35384 6.8789 7.5078C7.7689 9.28779 9.21221 10.7311 10.9922 11.6211C11.1462 11.6981 11.3321 11.6679 11.4538 11.5462L12.0429 10.9571C12.4334 10.5666 13.0666 10.5666 13.4571 10.9571Z" stroke="#121212" stroke-width="1.3"/>
</svg>
