<svg width="20" height="20" viewBox="0 0 20 20" fill="none" xmlns="http://www.w3.org/2000/svg">
<path d="M8.56412 11.3396C9.14149 11.9404 9.76262 12.4974 10.4224 13.0063C10.7136 13.2297 11.0665 13.3583 11.4332 13.3747C11.7998 13.3911 12.1627 13.2944 12.4726 13.0979L12.9141 12.823C13.2329 12.605 13.6126 12.4932 13.9987 12.5037C14.3848 12.5142 14.7576 12.6463 15.0642 12.8812L17.1308 14.5479C17.2307 14.6263 17.3129 14.725 17.3719 14.8374C17.4309 14.9498 17.4656 15.0734 17.4734 15.2001C17.4813 15.3268 17.4622 15.4538 17.4175 15.5726C17.3728 15.6914 17.3036 15.7995 17.2142 15.8896V15.8896C16.4182 16.6877 15.3927 17.2171 14.2811 17.4039C13.1695 17.5906 12.0274 17.4254 11.0143 16.9313C9.29553 16.085 7.72963 14.9585 6.3809 13.598C5.02001 12.2526 3.8934 10.6894 3.04756 8.97291C2.5542 7.95881 2.38857 6.81636 2.57373 5.70392C2.75889 4.59148 3.28565 3.56424 4.08089 2.76462V2.76462C4.17047 2.67475 4.27793 2.6048 4.39644 2.55944C4.51495 2.51408 4.64185 2.49432 4.76855 2.5014C4.89525 2.50849 5.019 2.54225 5.13171 2.60054C5.24443 2.65883 5.34343 2.74029 5.42244 2.83959L7.08911 4.91458C7.31957 5.20648 7.45458 5.56235 7.47546 5.93367C7.49634 6.30499 7.40218 6.67374 7.20589 6.98963L6.88078 7.49795C6.68536 7.80786 6.58879 8.16982 6.60368 8.5359C6.61856 8.90198 6.74426 9.25488 6.96419 9.54791C7.46233 10.2067 8.00524 10.8305 8.58915 11.4146L8.56412 11.3396Z" stroke="#007AFF" stroke-width="2" stroke-linejoin="round"/>
</svg>
