<svg width="28" height="28" viewBox="0 0 28 28" fill="none" xmlns="http://www.w3.org/2000/svg">
<rect width="28" height="28" rx="14" fill="#419FD9"/>
<rect width="28" height="28" rx="14" fill="url(#paint0_linear_501_585)"/>
<path d="M6.29263 13.6914C10.3639 11.8803 13.0787 10.6864 14.4371 10.1095C18.3155 8.46244 19.1214 8.17633 19.6466 8.16678C19.7622 8.1648 20.0205 8.19403 20.1878 8.33266C20.3291 8.44971 20.368 8.60784 20.3866 8.71882C20.4052 8.8298 20.4283 9.08261 20.4099 9.28015C20.1998 11.5349 19.2903 17.0064 18.8277 19.5318C18.6319 20.6003 18.2464 20.9586 17.8733 20.9937C17.0623 21.0699 16.4464 20.4464 15.6609 19.9207C14.4317 19.098 13.7374 18.5859 12.5442 17.7832C11.1654 16.8554 12.0592 16.3455 12.845 15.5122C13.0507 15.2941 16.624 11.9756 16.6932 11.6745C16.7018 11.6369 16.7099 11.4965 16.6282 11.4224C16.5465 11.3483 16.426 11.3737 16.3391 11.3938C16.2158 11.4224 14.2522 12.7475 10.4483 15.3693C9.89091 15.76 9.38607 15.9504 8.93375 15.9404C8.43511 15.9294 7.47592 15.6526 6.76286 15.4159C5.88826 15.1256 5.19315 14.9722 5.25367 14.4792C5.2852 14.2224 5.63152 13.9598 6.29263 13.6914Z" fill="white"/>
<defs>
<linearGradient id="paint0_linear_501_585" x1="14" y1="0" x2="14" y2="27.7922" gradientUnits="userSpaceOnUse">
<stop stop-color="#2AABEE"/>
<stop offset="1" stop-color="#229ED9"/>
</linearGradient>
</defs>
</svg>
