<svg width="21" height="22" viewBox="0 0 21 22" fill="none" xmlns="http://www.w3.org/2000/svg">
<g clip-path="url(#clip0_182_1736)">
<path d="M14.4897 6.44979H15.4C15.5935 6.44979 15.75 6.29299 15.75 6.09981C15.75 5.90663 15.5935 5.74983 15.4 5.74983H14.9496C15.912 4.96201 16.781 3.50221 16.4475 0.806956C16.4254 0.631576 16.2764 0.5 16.0996 0.5C14.5016 0.5 13.0978 1.27453 12.3589 2.47917C12.0576 1.67245 11.4882 1.01519 10.6745 0.54688C10.5663 0.484578 10.4333 0.484578 10.3252 0.54688C9.51144 1.01552 8.94203 1.67245 8.64069 2.47917C7.90222 1.27453 6.4984 0.5 4.90001 0.5C4.72361 0.5 4.57452 0.631576 4.55282 0.806956C4.21929 3.50221 5.08831 4.96201 6.05077 5.74983H5.59997C5.40642 5.74983 5.24999 5.90663 5.24999 6.09981C5.24999 6.29299 5.40642 6.44979 5.59997 6.44979H6.5103C4.19058 8.96236 1.054 14.2671 2.50154 17.922C3.4423 20.2967 6.08264 21.5 10.3476 21.5C10.4469 21.5 10.5485 21.5 10.6478 21.5C14.9166 21.5 17.5577 20.2967 18.4984 17.922C19.946 14.2671 16.8094 8.96236 14.4897 6.44979ZM5.21324 1.21153C6.78785 1.32949 8.07895 2.33218 8.40933 3.73038C8.44924 3.89907 8.61584 4.0142 8.77928 3.99882C8.95216 3.98413 9.08833 3.8455 9.09953 3.67263C9.16741 2.62966 9.6385 1.81875 10.5002 1.2598C11.3619 1.81875 11.8329 2.62929 11.9008 3.67263C11.912 3.8455 12.0482 3.98413 12.2211 3.99882C12.3887 4.01178 12.5508 3.89907 12.591 3.73038C12.9211 2.33218 14.2125 1.32981 15.7871 1.21153C16.0479 4.11046 14.7575 5.28012 13.5808 5.74983H7.41956C6.24292 5.28012 4.95251 4.11083 5.21324 1.21153ZM17.8478 17.6641C17.0131 19.7707 14.5541 20.8319 10.4977 20.7993C10.448 20.7997 10.3997 20.7997 10.3504 20.7997C6.39866 20.7997 3.97673 19.7448 3.15249 17.6641C1.7837 14.209 5.15303 8.68272 7.4906 6.44983H13.5093C15.8469 8.68272 19.2163 14.209 17.8478 17.6641Z" fill="#007AFF"/>
<path d="M10.8498 13.1689V10.425C12.0985 10.4828 12.5399 10.8482 12.7632 11.1295C12.8829 11.2804 13.1034 11.3063 13.2546 11.1862C13.4058 11.0662 13.4317 10.846 13.3113 10.6945C12.8286 10.0862 12.0394 9.7772 10.8498 9.72679V9.22034C10.8498 9.02716 10.6934 8.87036 10.4998 8.87036C10.3063 8.87036 10.1498 9.02716 10.1498 9.22034V9.73446C8.59939 9.87551 7.77692 10.8303 7.76294 11.7654C7.74928 12.6621 8.48673 13.5969 10.1498 13.7737V16.4773C9.07816 16.4462 8.71104 16.2544 8.21336 15.7427C8.07826 15.6041 7.85674 15.6009 7.71848 15.7357C7.57989 15.8704 7.5771 16.0923 7.71146 16.2306C8.37611 16.9138 8.93641 17.1426 10.1498 17.1769V17.6781C10.1498 17.8713 10.3063 18.0281 10.4998 18.0281C10.6934 18.0281 10.8498 17.8713 10.8498 17.6781V17.163C12.2644 17.0377 13.3141 16.3101 13.3956 15.3574C13.4285 14.9777 13.326 13.7328 10.8498 13.1689ZM10.1498 13.0643C8.98157 12.9169 8.45416 12.3356 8.46257 11.7763C8.472 11.1747 9.05683 10.5651 10.1498 10.4432V13.0643ZM12.6988 15.2976C12.6547 15.8089 11.9572 16.343 10.8502 16.4567V13.8864C12.2617 14.2427 12.7366 14.8535 12.6988 15.2976Z" fill="#007AFF"/>
</g>
<defs>
<clipPath id="clip0_182_1736">
<rect width="21" height="21" fill="white" transform="translate(0 0.5)"/>
</clipPath>
</defs>
</svg>
