<svg width="21" height="22" viewBox="0 0 21 22" fill="none" xmlns="http://www.w3.org/2000/svg">
<g clip-path="url(#clip0_182_1664)">
<path d="M19.3609 18.7075L16.9125 11.9806C17.6223 10.8319 18.0326 9.47939 18.0326 8.03268C18.0326 3.87915 14.6534 0.5 10.4999 0.5C6.34636 0.5 2.96721 3.87915 2.96721 8.03268C2.96721 9.47939 3.37753 10.8319 4.08735 11.9806L1.63892 18.7075C1.43121 19.2785 2.0193 19.8201 2.57182 19.5624L5.46202 18.2146L6.80976 21.1048C7.06779 21.6583 7.8657 21.6217 8.07386 21.0496L10.0744 15.5531C10.2153 15.561 10.3571 15.5653 10.4999 15.5653C10.6427 15.5653 10.7845 15.5609 10.9253 15.5531L12.9259 21.0496C13.1335 21.6201 13.9313 21.6598 14.19 21.1048L15.5378 18.2146L18.428 19.5624C18.9788 19.8192 19.5693 19.2804 19.3609 18.7075ZM7.35231 19.0277L6.41387 17.0152C6.25412 16.6728 5.84655 16.5241 5.50382 16.684L3.49135 17.6225L5.07984 13.2582C6.04912 14.2632 7.29444 15.0001 8.69246 15.3456L7.35231 19.0277ZM10.4999 14.1958C7.10154 14.1958 4.33676 11.431 4.33676 8.03268C4.33676 4.63433 7.10158 1.86959 10.4999 1.86959C13.8982 1.86959 16.663 4.63438 16.663 8.03273C16.663 11.4311 13.8983 14.1958 10.4999 14.1958ZM15.496 16.6839C15.1528 16.5239 14.7455 16.6732 14.586 17.0151L13.6475 19.0277L12.3073 15.3456C13.7053 15 14.9506 14.2632 15.9199 13.2582L17.5084 17.6224L15.496 16.6839Z" fill="#007AFF"/>
<path d="M11.8695 10.087H11.1847V5.29344C11.1847 4.91523 10.8782 4.60864 10.4999 4.60864H9.13035C8.75215 4.60864 8.44556 4.91523 8.44556 5.29344C8.44556 5.67164 8.75215 5.97824 9.13035 5.97824H9.81515V10.087H9.13035C8.75215 10.087 8.44556 10.3936 8.44556 10.7718C8.44556 11.15 8.75215 11.4566 9.13035 11.4566H11.8695C12.2477 11.4566 12.5543 11.15 12.5543 10.7718C12.5543 10.3936 12.2477 10.087 11.8695 10.087Z" fill="#007AFF"/>
</g>
<defs>
<clipPath id="clip0_182_1664">
<rect width="21" height="21" fill="white" transform="translate(0 0.5)"/>
</clipPath>
</defs>
</svg>
