<svg width="21" height="22" viewBox="0 0 21 22" fill="none" xmlns="http://www.w3.org/2000/svg">
<g clip-path="url(#clip0_182_1755)">
<path d="M4.19999 5.53667H8.87577V11.1312H4.19999V5.53667ZM10.7297 5.53667H14.4703V6.47183H10.7297V5.53667ZM10.7297 10.2125H14.4703V11.1476H10.7297V10.2125ZM10.7297 7.86636H14.4703V8.80151H10.7297V7.86636ZM4.19999 12.575H14.4539V13.5101H4.19999V12.575ZM4.19999 17.1359H14.4539V18.071H4.19999V17.1359ZM4.19999 14.7898H14.4539V15.725H4.19999V14.7898ZM3.93749 0.762451V2.55073H1.8703V21.2867H17.0625V19.4984H19.1297V0.762451H3.93749ZM16.1273 20.3679H2.78905V3.46948H3.93749H4.87264H16.1273V18.5468V19.482V20.3679ZM18.2109 18.5632H17.0625V2.53433H4.87264V1.69761H18.2109V18.5632Z" fill="#007AFF"/>
</g>
<defs>
<clipPath id="clip0_182_1755">
<rect width="21" height="21" fill="white" transform="translate(0 0.5)"/>
</clipPath>
</defs>
</svg>
