<svg width="21" height="22" viewBox="0 0 21 22" fill="none" xmlns="http://www.w3.org/2000/svg">
<path d="M19.1946 20.3334H1.69457C1.37257 20.3334 1.11124 20.0721 1.11124 19.7501C1.11124 19.4281 1.37257 19.1667 1.69457 19.1667H19.1946C19.5166 19.1667 19.7779 19.4281 19.7779 19.7501C19.7779 20.0721 19.5166 20.3334 19.1946 20.3334Z" fill="#007AFF"/>
<path d="M6.76373 15.9783C6.76373 17.0948 5.8584 18.0002 4.7419 18.0002H3.2436C2.1271 18.0002 1.22177 17.0948 1.22177 15.9783V10.1053C1.22206 8.98883 2.1274 8.0835 3.2439 8.0835H4.74219C5.85869 8.0835 6.76402 8.98883 6.76402 10.1053L6.76373 15.9783ZM5.59706 10.1053C5.59706 9.63312 5.2141 9.25016 4.7419 9.25016H3.2436C2.7714 9.25016 2.38844 9.63312 2.38844 10.1053V15.9786C2.38873 16.4508 2.77169 16.8335 3.2439 16.8335H4.74219C5.2144 16.8335 5.59735 16.4505 5.59735 15.9783L5.59706 10.1053Z" fill="#007AFF"/>
<path d="M13.4721 15.9782C13.4721 17.0947 12.5667 18 11.4502 18H9.95195C8.83545 18 7.93011 17.0947 7.93011 15.9782V6.89683C7.93011 5.78033 8.83545 4.875 9.95195 4.875H11.4502C12.5667 4.875 13.4721 5.78033 13.4721 6.89683V15.9782ZM12.3054 6.89683C12.3054 6.42462 11.9224 6.04167 11.4502 6.04167H9.95195C9.47974 6.04167 9.09678 6.42462 9.09678 6.89683V15.9785C9.09678 16.4507 9.47974 16.8336 9.95195 16.8336H11.4502C11.9224 16.8336 12.3054 16.4507 12.3054 15.9785V6.89683Z" fill="#007AFF"/>
<path d="M16.3333 6.04175C16.172 6.04175 16.0971 5.91137 16.0971 5.75008V3.989C16.0971 3.41675 16.567 3.41675 16.758 3.41675H17.4446C17.6056 3.41675 17.7362 3.54712 17.7362 3.70841C17.7362 3.86971 17.6056 4.00008 17.4446 4.00008H16.758C16.66 4.00008 16.6031 4.00475 16.5702 4.01029L16.5973 5.75008C16.5973 5.91137 16.4943 6.04175 16.3333 6.04175Z" fill="#007AFF"/>
<path d="M16.2779 6.67746C16.2018 6.67746 16.1259 6.64538 16.0708 6.59288C16.018 6.53776 15.9862 6.46163 15.9862 6.3858C15.9862 6.30996 16.018 6.23413 16.0708 6.17871C16.1817 6.06788 16.3771 6.0708 16.485 6.17871C16.5375 6.23413 16.5696 6.30705 16.5696 6.3858C16.5696 6.46163 16.5375 6.53776 16.485 6.59288C16.4293 6.64509 16.3534 6.67746 16.2779 6.67746Z" fill="#007AFF"/>
<path d="M19.8887 15.9782C19.8887 17.0947 18.9834 18.0001 17.8669 18.0001H16.3686C15.2521 18.0001 14.3468 17.0947 14.3468 15.9782V3.68858C14.3471 2.57208 15.2524 1.66675 16.3689 1.66675H17.8672C18.9837 1.66675 19.889 2.57208 19.889 3.68858L19.8887 15.9782ZM18.7221 3.68858C18.7221 3.21637 18.3394 2.83341 17.8672 2.83341H16.3689C15.8967 2.83341 15.5137 3.21637 15.5137 3.68858V15.9785C15.5137 16.4507 15.8967 16.8337 16.3689 16.8337H17.8672C18.3394 16.8337 18.7224 16.4507 18.7224 15.9785L18.7221 3.68858Z" fill="#007AFF"/>
</svg>
