<svg width="21" height="22" viewBox="0 0 21 22" fill="none" xmlns="http://www.w3.org/2000/svg">
<g clip-path="url(#clip0_182_538)">
<path d="M6.78125 9.40889L9.07353 11.1771C9.16176 11.89 9.76268 12.4443 10.5 12.4443C11.2978 12.4443 11.9443 11.7975 11.9443 11C11.9443 10.9691 11.9372 10.9405 11.9352 10.9099L15.2945 6.93561C15.5292 6.67257 15.5332 6.29367 15.3046 6.09052C15.0758 5.88675 14.7005 5.9356 14.4664 6.1986L11.1653 9.72528C10.9654 9.62045 10.7411 9.55568 10.4999 9.55568C10.2415 9.55568 10.0026 9.62894 9.7929 9.74776L7.63442 8.24482C7.35608 8.03975 6.93875 8.13478 6.70275 8.45642C6.46744 8.77733 6.50193 9.2041 6.78125 9.40889Z" fill="#007AFF"/>
<path d="M10.5 0.5C10.0397 0.5 9.66669 0.873078 9.66669 1.33336C9.66669 1.79363 10.0398 2.16667 10.5 2.16667C12.9421 2.167 15.1449 3.154 16.7461 4.75389C18.346 6.35482 19.333 8.55793 19.3333 11C19.333 13.4421 18.346 15.6449 16.7461 17.2461C15.1449 18.846 12.9421 19.833 10.5 19.8333C8.05797 19.833 5.85482 18.846 4.25394 17.2461C2.654 15.6449 1.667 13.4421 1.66667 11C1.667 9.22558 2.19044 7.57782 3.08987 6.19502L3.8633 6.77309C3.94697 6.8356 4.05763 6.85123 4.15562 6.81411C4.25328 6.77703 4.32621 6.69336 4.3477 6.59049L4.86819 4.12861C4.96096 3.96939 5.00067 3.78646 4.97819 3.60677L5.21354 2.49414C5.2386 2.377 5.1927 2.25649 5.0973 2.18455C5.00124 2.11327 4.8727 2.10351 4.7672 2.1608L1.08458 4.1517C0.992127 4.20215 0.931916 4.29526 0.924451 4.39972C0.916617 4.5039 0.962842 4.60546 1.04684 4.66829L1.75124 5.19465C0.645832 6.85808 -0.000287014 8.85513 9.56445e-08 11C0.000656346 16.7994 4.70055 21.4993 10.5 21.5C16.2995 21.4993 20.9994 16.7994 21 11C20.9994 5.20055 16.2995 0.500656 10.5 0.5Z" fill="#007AFF"/>
</g>
<defs>
<clipPath id="clip0_182_538">
<rect width="21" height="21" fill="white" transform="translate(0 0.5)"/>
</clipPath>
</defs>
</svg>
