<svg width="21" height="22" viewBox="0 0 21 22" fill="none" xmlns="http://www.w3.org/2000/svg">
<g clip-path="url(#clip0_182_1689)">
<path d="M6.97852 3.02101C6.93302 2.88087 6.8198 2.77299 6.67753 2.73412L4.88502 2.24471L3.86561 0.691238C3.70411 0.444717 3.29566 0.444717 3.13416 0.691238L2.11497 2.24471L0.32224 2.73412C0.179968 2.77299 0.0667473 2.88087 0.0212456 3.02101C-0.0242561 3.16136 0.00394211 3.31496 0.0960136 3.42989L1.25876 4.87953L1.17011 6.73549C1.16306 6.88289 1.23078 7.02367 1.34998 7.1104C1.42582 7.16551 1.51618 7.19392 1.60718 7.19392C1.65931 7.19392 1.71186 7.18452 1.76206 7.16551L3.49988 6.50777L5.23792 7.16551C5.37571 7.21785 5.5308 7.19713 5.65 7.1104C5.7692 7.02367 5.83692 6.88289 5.82987 6.73549L5.74122 4.87953L6.90375 3.42989C6.99582 3.31496 7.02402 3.16115 6.97852 3.02101ZM4.95487 4.46126C4.88822 4.54436 4.85425 4.64925 4.85917 4.75584L4.92389 6.11128L3.65476 5.63084C3.60477 5.61183 3.55243 5.60243 3.49988 5.60243C3.44733 5.60243 3.39499 5.61183 3.34501 5.63084L2.07609 6.11107L2.14081 4.75584C2.14594 4.64925 2.11176 4.54436 2.04511 4.46126L1.19596 3.40276L2.50504 3.04536C2.60801 3.01717 2.69709 2.95244 2.75562 2.86314L3.49988 1.72881L4.24436 2.86314C4.30289 2.95244 4.39197 3.01717 4.49494 3.04536L5.80381 3.40276L4.95487 4.46126Z" fill="#007AFF"/>
<path d="M16.1875 2.68115H8.75V3.55615H16.1875V2.68115Z" fill="#007AFF"/>
<path d="M21 4.86865H8.75V5.74365H21V4.86865Z" fill="#007AFF"/>
<path d="M6.97852 10.1707C6.93281 10.0306 6.8198 9.92268 6.67753 9.8838L4.88502 9.39461L3.86561 7.84114C3.70411 7.59462 3.29566 7.59462 3.13416 7.84114L2.11497 9.39461L0.32224 9.8838C0.179968 9.92268 0.0669609 10.0306 0.0212456 10.1707C-0.0242561 10.3108 0.00394211 10.4646 0.0960136 10.5796L1.25876 12.0292L1.17011 13.8852C1.16306 14.0326 1.23078 14.1734 1.34998 14.2601C1.46897 14.3464 1.62406 14.3671 1.76206 14.3152L3.49988 13.6575L5.23792 14.3152C5.28812 14.3342 5.34067 14.3436 5.3928 14.3436C5.4838 14.3436 5.57416 14.3152 5.65 14.2601C5.7692 14.1734 5.83692 14.0326 5.82987 13.8852L5.74122 12.0292L6.90375 10.5796C6.99582 10.4646 7.02402 10.3108 6.97852 10.1707ZM4.95487 11.6109C4.88822 11.694 4.85425 11.7989 4.85917 11.9055L4.92389 13.261L3.65476 12.7805C3.60477 12.7615 3.55243 12.7521 3.49988 12.7521C3.44733 12.7521 3.39499 12.7615 3.34501 12.7805L2.07609 13.2608L2.14081 11.9055C2.14594 11.7989 2.11176 11.694 2.04511 11.6109L1.19596 10.5524L2.50504 10.1953C2.60801 10.1671 2.69709 10.1023 2.75562 10.013L3.49988 8.87871L4.24436 10.013C4.30289 10.1023 4.39197 10.1671 4.49494 10.1953L5.80381 10.5524L4.95487 11.6109Z" fill="#007AFF"/>
<path d="M16.1875 9.68115H8.75V10.5562H16.1875V9.68115Z" fill="#007AFF"/>
<path d="M21 11.8687H8.75V12.7437H21V11.8687Z" fill="#007AFF"/>
<path d="M6.97852 17.3208C6.93281 17.1807 6.8198 17.0728 6.67753 17.0339L4.88502 16.5447L3.86561 14.991C3.70411 14.7445 3.29566 14.7445 3.13416 14.991L2.11497 16.5447L0.32224 17.0339C0.179968 17.0728 0.0669609 17.1807 0.0212456 17.3208C-0.0242561 17.461 0.00394211 17.6148 0.0960136 17.7297L1.25876 19.1793L1.17011 21.0353C1.16306 21.1827 1.23078 21.3235 1.34998 21.4102C1.46897 21.4969 1.62406 21.5172 1.76206 21.4653L3.49988 20.8076L5.23792 21.4653C5.28812 21.4843 5.34067 21.4937 5.3928 21.4937C5.4838 21.4937 5.57416 21.4653 5.65 21.4102C5.7692 21.3235 5.83692 21.1827 5.82987 21.0353L5.74122 19.1793L6.90375 17.7297C6.99582 17.6148 7.02402 17.461 6.97852 17.3208ZM4.95487 18.7611C4.88822 18.8442 4.85425 18.9491 4.85917 19.0556L4.92389 20.4111L3.65476 19.9307C3.60477 19.9116 3.55243 19.9022 3.49988 19.9022C3.44733 19.9022 3.39499 19.9116 3.34501 19.9307L2.07609 20.4109L2.14081 19.0556C2.14594 18.9491 2.11176 18.8442 2.04511 18.7611L1.19596 17.7026L2.50504 17.3454C2.60801 17.3172 2.69709 17.2525 2.75562 17.1632L3.49988 16.0286L4.24436 17.1632C4.30289 17.2525 4.39197 17.3172 4.49494 17.3454L5.80381 17.7026L4.95487 18.7611Z" fill="#007AFF"/>
<path d="M16.1875 17.1187H8.75V17.9937H16.1875V17.1187Z" fill="#007AFF"/>
<path d="M21 19.3062H8.75V20.1812H21V19.3062Z" fill="#007AFF"/>
</g>
<defs>
<clipPath id="clip0_182_1689">
<rect width="21" height="21" fill="white" transform="translate(0 0.5)"/>
</clipPath>
</defs>
</svg>
