<svg width="28" height="28" viewBox="0 0 28 28" fill="none" xmlns="http://www.w3.org/2000/svg">
<rect width="28" height="28" rx="14" fill="#0DC143"/>
<path d="M20.2712 7.70672C18.7703 6.16168 16.6956 5.32294 14.5766 5.32294C10.0739 5.32294 6.45412 8.9869 6.49826 13.4455C6.49826 14.8581 6.89556 16.2265 7.55772 17.4626L6.40997 21.6563L10.692 20.5527C11.8838 21.2148 13.2082 21.5238 14.5325 21.5238C18.9911 21.5238 22.6109 17.8599 22.6109 13.4013C22.6109 11.2383 21.7721 9.20762 20.2712 7.70672ZM14.5766 20.1554C13.3847 20.1554 12.1929 19.8464 11.1775 19.2283L10.9127 19.0959L8.35232 19.7581L9.01448 17.2419L8.8379 16.977C6.89556 13.8428 7.82259 9.69321 11.001 7.75086C14.1793 5.80852 18.2847 6.73555 20.2271 9.91393C22.1694 13.0923 21.2424 17.1977 18.064 19.1401C17.0487 19.8022 15.8127 20.1554 14.5766 20.1554ZM18.4613 15.2554L17.9757 15.0346C17.9757 15.0346 17.2694 14.7256 16.828 14.5049C16.7838 14.5049 16.7397 14.4608 16.6956 14.4608C16.5631 14.4608 16.4748 14.5049 16.3865 14.5491C16.3865 14.5491 16.3424 14.5932 15.7244 15.2995C15.6802 15.3878 15.592 15.4319 15.5037 15.4319H15.4595C15.4154 15.4319 15.3271 15.3878 15.2829 15.3437L15.0622 15.2554C14.5766 15.0346 14.1352 14.7698 13.782 14.4166C13.6938 14.3283 13.5613 14.2401 13.473 14.1518C13.164 13.8428 12.855 13.4896 12.6343 13.0923L12.5902 13.004C12.546 12.9599 12.546 12.9157 12.5019 12.8274C12.5019 12.7392 12.5019 12.6509 12.546 12.6067C12.546 12.6067 12.7226 12.386 12.855 12.2536C12.9433 12.1653 12.9875 12.0328 13.0757 11.9446C13.164 11.8121 13.2082 11.6355 13.164 11.5031C13.1199 11.2824 12.5902 10.0905 12.4577 9.82564C12.3694 9.69321 12.2811 9.64906 12.1487 9.60492H12.0163C11.928 9.60492 11.7956 9.60492 11.6631 9.60492C11.5748 9.60492 11.4865 9.64906 11.3983 9.64906L11.3541 9.69321C11.2658 9.73735 11.1775 9.82564 11.0893 9.86978C11.001 9.95807 10.9568 10.0464 10.8685 10.1346C10.5595 10.5319 10.3829 11.0175 10.3829 11.5031C10.3829 11.8563 10.4712 12.2094 10.6037 12.5184L10.6478 12.6509C11.0451 13.4896 11.5748 14.2401 12.2811 14.9022L12.4577 15.0788C12.5902 15.2112 12.7226 15.2995 12.8109 15.4319C13.7379 16.2265 14.7974 16.8004 15.9893 17.1094C16.1217 17.1536 16.2983 17.1536 16.4307 17.1977C16.5631 17.1977 16.7397 17.1977 16.8721 17.1977C17.0929 17.1977 17.3577 17.1094 17.5343 17.0211C17.6667 16.9328 17.755 16.9328 17.8433 16.8446L17.9316 16.7563C18.0199 16.668 18.1082 16.6238 18.1965 16.5355C18.2847 16.4473 18.373 16.359 18.4172 16.2707C18.5055 16.0941 18.5496 15.8734 18.5938 15.6527C18.5938 15.5644 18.5938 15.4319 18.5938 15.3437C18.5938 15.3437 18.5496 15.2995 18.4613 15.2554Z" fill="white"/>
</svg>
