<svg width="41" height="41" viewBox="0 0 41 41" fill="none" xmlns="http://www.w3.org/2000/svg">
<rect width="41" height="41" rx="6" fill="white"/>
<path d="M19.0707 31.2784C17.9371 31.2784 16.9594 31.0497 16.1374 30.5923C15.3221 30.1283 14.7156 29.492 14.3178 28.6832C13.9267 27.8745 13.8008 26.9498 13.94 25.9091H15.7397C15.627 26.983 15.9021 27.8679 16.565 28.5639C17.2279 29.2599 18.1426 29.608 19.3093 29.608C20.2174 29.608 21.0626 29.3892 21.8448 28.9517C22.6336 28.5142 23.2965 27.9176 23.8335 27.1619C24.3704 26.4062 24.7184 25.5511 24.8775 24.5966C25.0366 23.6023 24.967 22.724 24.6687 21.9616C24.377 21.1993 23.9064 20.6061 23.2567 20.1818C22.6071 19.7509 21.8282 19.5355 20.9201 19.5355C20.244 19.5355 19.5513 19.6515 18.842 19.8835C18.1393 20.1155 17.5394 20.4105 17.0423 20.7685L15.2227 20.5298L18.0863 10.6364H28.1488L27.8704 12.3068H19.369L17.4201 19.1179H17.5295C18.0465 18.7334 18.6431 18.4252 19.3192 18.1932C20.002 17.9545 20.7146 17.8352 21.457 17.8352C22.6502 17.8352 23.6777 18.1236 24.5394 18.7003C25.4078 19.277 26.0375 20.0724 26.4286 21.0866C26.8197 22.0942 26.9026 23.2543 26.6772 24.5668C26.4651 25.8527 25.9944 27.0028 25.2653 28.017C24.5427 29.0246 23.6412 29.8201 22.5607 30.4034C21.4869 30.9867 20.3235 31.2784 19.0707 31.2784Z" fill="#007AFF" fill-opacity="0.66"/>
</svg>
