<svg width="41" height="41" viewBox="0 0 41 41" fill="none" xmlns="http://www.w3.org/2000/svg">
<rect width="41" height="41" rx="6" fill="white"/>
<path d="M12.4494 31L12.688 29.6378L20.563 22.1605C21.5905 21.1795 22.429 20.3409 23.0787 19.6449C23.7283 18.9422 24.2254 18.2992 24.5701 17.7159C24.9148 17.1259 25.1402 16.5128 25.2463 15.8764C25.3722 15.1009 25.3059 14.4247 25.0474 13.848C24.7955 13.2647 24.3878 12.8106 23.8244 12.4858C23.2676 12.161 22.5914 11.9986 21.796 11.9986C20.9608 11.9986 20.1951 12.1776 19.4991 12.5355C18.8031 12.8935 18.2231 13.3873 17.7591 14.017C17.3017 14.6402 17.0034 15.3527 16.8642 16.1548H15.0843C15.2699 15.0279 15.6975 14.0303 16.367 13.1619C17.0431 12.2869 17.8784 11.6009 18.8727 11.1037C19.867 10.6065 20.9376 10.358 22.0843 10.358C23.2245 10.358 24.1923 10.6032 24.9877 11.0938C25.7832 11.5777 26.3599 12.2372 26.7179 13.0724C27.0758 13.9077 27.1686 14.8423 26.9963 15.8764C26.8637 16.6321 26.6085 17.3613 26.2306 18.0639C25.8528 18.7599 25.2728 19.5388 24.4906 20.4006C23.7084 21.2623 22.6511 22.3163 21.3187 23.5625L15.3429 29.2003L15.313 29.3295H25.3855L25.1071 31H12.4494Z" fill="#007AFF" fill-opacity="0.66"/>
</svg>
