<svg width="41" height="41" viewBox="0 0 41 41" fill="none" xmlns="http://www.w3.org/2000/svg">
<rect width="41" height="41" rx="6" fill="white"/>
<path d="M18.8416 31.2784C17.5821 31.2784 16.4884 31.053 15.5604 30.6023C14.6323 30.1449 13.9429 29.5152 13.4922 28.7131C13.0414 27.9044 12.889 26.9697 13.0348 25.9091H14.8942C14.808 26.6449 14.9174 27.2912 15.2223 27.848C15.5272 28.4048 15.9912 28.839 16.6143 29.1506C17.2441 29.4555 17.9964 29.608 18.8714 29.608C19.7995 29.608 20.6645 29.4356 21.4666 29.0909C22.2687 28.7396 22.9382 28.2524 23.4751 27.6293C24.0187 26.9995 24.3535 26.2704 24.4794 25.4418C24.6054 24.6463 24.5125 23.9437 24.201 23.3338C23.8961 22.7173 23.389 22.2367 22.6797 21.892C21.9704 21.5473 21.0755 21.375 19.995 21.375H18.782L19.0405 19.7045H20.1839C21.0656 19.7045 21.8776 19.5421 22.62 19.2173C23.3625 18.8859 23.9822 18.4219 24.4794 17.8253C24.9766 17.2221 25.2914 16.5128 25.424 15.6974C25.5433 14.9683 25.4903 14.3286 25.2649 13.7784C25.0462 13.2216 24.6683 12.7874 24.1314 12.4759C23.5945 12.1577 22.915 11.9986 22.093 11.9986C21.3042 11.9986 20.5419 12.151 19.8061 12.456C19.0703 12.7609 18.4472 13.1918 17.9368 13.7486C17.4264 14.3054 17.1049 14.965 16.9723 15.7273H15.1726C15.3648 14.6733 15.8023 13.742 16.4851 12.9332C17.1679 12.1245 18.0031 11.4948 18.9908 11.044C19.9785 10.5866 21.0357 10.358 22.1626 10.358C23.3691 10.358 24.3733 10.6098 25.1754 11.1136C25.9841 11.6174 26.5642 12.2836 26.9155 13.1122C27.2668 13.9408 27.3596 14.849 27.1939 15.8366C27.0149 16.9768 26.541 17.9479 25.772 18.75C25.0031 19.5521 24.0585 20.1188 22.9382 20.4503V20.5497C24.1977 20.8082 25.1224 21.4015 25.7124 22.3295C26.3089 23.2576 26.4979 24.3679 26.2791 25.6605C26.1001 26.7741 25.666 27.7552 24.9766 28.6037C24.2872 29.4455 23.4155 30.1018 22.3615 30.5724C21.3075 31.0431 20.1342 31.2784 18.8416 31.2784Z" fill="#007AFF" fill-opacity="0.66"/>
</svg>
