<svg width="28" height="28" viewBox="0 0 28 28" fill="none" xmlns="http://www.w3.org/2000/svg">
<rect width="28" height="28" rx="14" fill="#FF0000"/>
<path fill-rule="evenodd" clip-rule="evenodd" d="M20.8471 8.24839C21.5967 8.4502 22.1877 9.04122 22.3895 9.7908C22.7643 11.1602 22.7499 14.0144 22.7499 14.0144C22.7499 14.0144 22.7499 16.8542 22.3895 18.2236C22.1877 18.9732 21.5967 19.5642 20.8471 19.7661C19.4777 20.1264 14 20.1264 14 20.1264C14 20.1264 8.53664 20.1264 7.15279 19.7516C6.40321 19.5498 5.81219 18.9588 5.61038 18.2092C5.25 16.8542 5.25 14 5.25 14C5.25 14 5.25 11.1602 5.61038 9.7908C5.81219 9.04122 6.41762 8.43578 7.15279 8.23397C8.52223 7.8736 14 7.8736 14 7.8736C14 7.8736 19.4777 7.8736 20.8471 8.24839ZM16.8109 14L12.2557 16.6236V11.3765L16.8109 14Z" fill="white"/>
</svg>
